Coordinates
version=1
nRows=4
nColumns=63
inDegrees=yes

Units are S.I. units (second, meters, Newtons, ...)
If the header above contains a line with 'inDegrees', this indicates whether rotational values are in degrees (yes) or radians (no).

endheader
time	pelvis_tilt	pelvis_list	pelvis_rotation	pelvis_tx	pelvis_ty	pelvis_tz	hip_flexion_r	hip_adduction_r	hip_rotation_r	knee_angle_r	knee_angle_r_beta	ankle_angle_r	subtalar_angle_r	mtp_angle_r	hip_flexion_l	hip_adduction_l	hip_rotation_l	knee_angle_l	knee_angle_l_beta	ankle_angle_l	subtalar_angle_l	mtp_angle_l	L5_S1_Flex_Ext	L5_S1_Lat_Bending	L5_S1_axial_rotation	L4_L5_Flex_Ext	L4_L5_Lat_Bending	L4_L5_axial_rotation	L3_L4_Flex_Ext	L3_L4_Lat_Bending	L3_L4_axial_rotation	L2_L3_Flex_Ext	L2_L3_Lat_Bending	L2_L3_axial_rotation	L1_L2_Flex_Ext	L1_L2_Lat_Bending	L1_L2_axial_rotation	L1_T12_Flex_Ext	L1_T12_Lat_Bending	L1_T12_axial_rotation	Abs_r3	Abs_r2	Abs_r1	Abs_t1	Abs_t2	neck_flexion	neck_bending	neck_rotation	arm_flex_r	arm_add_r	arm_rot_r	elbow_flex_r	pro_sup_r	wrist_flex_r	wrist_dev_r	arm_flex_l	arm_add_l	arm_rot_l	elbow_flex_l	pro_sup_l	wrist_flex_l	wrist_dev_l
      8.15094340	     -0.94834725	     -1.57252861	     99.67012932	      0.17545165	      0.49868585	      0.95298991	     -2.08550605	      1.01917693	    -17.52794238	     11.71743299	      0.20450779	     46.68269224	     16.09456697	      0.00000000	     -1.74728188	      1.47565614	     -6.45618112	     11.52403708	      0.20113239	     45.48873370	     12.21411777	      0.00000000	      0.03666997	      0.16999783	     -0.73709967	      0.06809981	      0.22609711	     -0.78316840	      0.06024510	      0.41333271	     -0.78316840	      0.04191011	      0.41333271	     -0.64496221	      0.03405174	      0.34665957	     -0.59889348	      0.02095322	      0.26332663	     -0.55282475	      0.26192996	      1.92304941	     -4.09952722	      0.00000000	      0.00000000	     15.05426961	     -2.21153049	     -5.68006887	    -18.85005534	    -20.96976669	     53.66325513	     71.25662641	      1.24649271	    -50.30799575	     30.80623505	    -30.32405651	    -11.79028212	     27.28243086	     61.56455993	     19.30104777	     67.30034924	    -23.58217073
      8.16981132	     -0.86730749	     -1.51768435	    100.14524231	      0.17481913	      0.49862527	      0.95225300	     -2.29860863	      1.19123029	    -17.95141496	     11.45430483	      0.19991533	     46.97880216	     16.31492825	      0.00000000	     -1.80906453	      1.36255834	     -5.83670027	     11.54360428	      0.20147390	     45.49265502	     12.14629857	      0.00000000	      0.04023303	      0.17385212	     -0.72833245	      0.07471676	      0.23122333	     -0.77385323	      0.06609884	      0.42270406	     -0.77385323	      0.04598233	      0.42270406	     -0.63729090	      0.03736039	      0.35451925	     -0.59177012	      0.02298915	      0.26929694	     -0.54624934	      0.28738050	      1.96665001	     -4.05076660	      0.00000000	      0.00000000	     15.09067474	     -2.25737227	     -6.28956924	    -19.26517419	    -20.83929163	     53.34577121	     71.10658440	      1.26168001	    -49.23207041	     30.47507859	    -30.30252511	    -11.93904388	     28.85516556	     61.35555163	     16.38016004	     68.11505738	    -23.75219143
      8.18867925	     -0.82941981	     -1.45315059	    100.51946618	      0.17430496	      0.49861368	      0.95179223	     -2.48973669	      1.31184696	    -18.22204416	     11.24430300	      0.19625011	     47.17897102	     16.41676217	      0.00000000	     -1.85831933	      1.29870975	     -5.26922390	     11.55427071	      0.20166007	     45.56030295	     12.12416829	      0.00000000	      0.03870565	      0.17716201	     -0.76662692	      0.07188027	      0.23562548	     -0.81454111	      0.06358952	      0.43075172	     -0.81454111	      0.04423669	      0.43075172	     -0.67079856	      0.03594207	      0.36126878	     -0.62288437	      0.02211641	      0.27442396	     -0.57497019	      0.27647062	      2.00409213	     -4.26374895	      0.00000000	      0.00000000	     15.09033991	     -2.27060185	     -6.42792617	    -19.37796031	    -20.81106635	     53.37543244	     71.00315799	      1.26392520	    -48.70622646	     30.38261906	    -30.42430532	    -11.89936490	     29.41887167	     61.19857427	     15.19950402	     68.42332710	    -23.85361976
      8.20754717	     -0.81620923	     -1.40521312	    100.76605986	      0.17400632	      0.49857136	      0.95149979	     -2.62140388	      1.38980832	    -18.36631827	     11.11178782	      0.19393728	     47.25418911	     16.44256045	      0.00000000	     -1.89189996	      1.27104391	     -4.80385223	     11.52754157	      0.20119356	     45.73025637	     12.14294150	      0.00000000	      0.03373210	      0.18264962	     -0.82370584	      0.06264388	      0.24292400	     -0.87518746	      0.05541847	      0.44409430	     -0.87518746	      0.03855242	      0.44409430	     -0.72074261	      0.03132363	      0.37245911	     -0.66926100	      0.01927452	      0.28292427	     -0.61777938	      0.24094502	      2.06616907	     -4.58120480	      0.00000000	      0.00000000	     15.18950207	     -2.35230311	     -6.16313352	    -19.36753742	    -20.83154883	     53.48485380	     70.98436109	      1.26631655	    -48.72505751	     30.34778666	    -30.56581990	    -11.78417500	     29.38186524	     61.14416251	     14.97480975	     68.49978788	    -23.88260308
